# xmcd
#
# Track frame offsets:
#	150
#	15287
#	30964
#	46456
#	67429
#	80490
#	96144
#	108461
#	126989
#	142613
#	159149
#	193260
#
# Disc length: 2756 seconds
#
# Revision: 0
# Processed by: cddbd v1.4PL0 Copyright (c) Steve Scherf et al.
# Submitted via: dBpowerAMP V4.0
#
DISCID=960ac20c
DTITLE=Fever - Almost Saturday Night
DYEAR=1900
DGENRE=Country
TTITLE0=Sticks And Stones
TTITLE1=Billy The Kid
TTITLE2=You're Still On My Mind
TTITLE3=Rainbows Never Last
TTITLE4=San Antonio/Deep In The Heart Of Texas
TTITLE5=One Step To Paradise
TTITLE6=What You Gonna Do With A Cowboy
TTITLE7=New Love On Your Mind
TTITLE8=Almost Saturday Night
TTITLE9=Hold Back The Night
TTITLE10=Fast As You/Time Is Right/Telstar
TTITLE11=Hank Don't Fail Me Now
EXTD=
EXTT0=
EXTT1=
EXTT2=
EXTT3=
EXTT4=
EXTT5=
EXTT6=
EXTT7=
EXTT8=
EXTT9=
EXTT10=
EXTT11=
PLAYORDER=
